<svg width="183" height="52" viewBox="0 0 183 52" fill="none" xmlns="http://www.w3.org/2000/svg">
<g clip-path="url(#clip0_405_29714)">
<path d="M39.016 10.5879C39.4991 11.0055 39.9564 11.4466 40.4123 11.8937C40.519 11.9923 40.6256 12.0909 40.7355 12.1925C43.7709 15.0684 45.4171 19.3763 45.5857 23.5088C45.7106 28.5701 43.9978 32.9047 40.5475 36.5798C40.4649 36.6715 40.3823 36.7631 40.2973 36.8575C37.3386 40.0163 32.9305 41.5348 28.7077 41.7601C26.921 41.791 24.9528 41.6263 23.2477 41.0559C23.2031 40.9664 23.1585 40.8769 23.1125 40.7846C23.1987 40.7683 23.285 40.7521 23.3738 40.7353C28.6512 39.7243 32.9006 37.5536 35.9818 33.0188C37.0895 31.2764 37.8223 29.4717 38.385 27.4921C38.4742 27.1788 38.5634 26.8654 38.6553 26.5426C40.261 26.4979 41.8666 26.4531 43.5209 26.407C42.5334 24.6867 41.5457 22.9668 40.5475 21.2527C39.8905 20.1245 39.2377 18.9941 38.5878 17.8618C36.6375 14.4449 36.6375 14.4449 34.6007 11.0798C34.5574 11.1573 34.514 11.2348 34.4694 11.3146C33.5519 12.9535 32.6238 14.5855 31.6776 16.2079C30.8399 17.6446 30.0118 19.0867 29.1839 20.5291C28.9173 20.9933 28.6505 21.4574 28.3835 21.9214C28.2944 22.0763 28.2053 22.2312 28.1135 22.3909C27.9455 22.6828 27.7776 22.9747 27.6096 23.2666C27.0086 24.3117 26.4122 25.3593 25.8156 26.407C27.555 26.4517 29.2945 26.4965 31.0866 26.5426C30.9594 27.1811 30.7728 27.5814 30.4278 28.1109C30.3738 28.1938 30.3198 28.2766 30.2642 28.3619C28.5013 30.9937 25.9878 32.6366 22.8744 33.2641C20.0642 33.652 17.4906 33.0106 15.1457 31.4282C12.8654 29.6751 11.5162 27.1053 11.1217 24.2654C10.7833 20.388 12.0126 16.692 14.4108 13.6353C17.5886 9.83439 21.6094 7.42358 26.5813 6.90168C30.9977 6.52902 35.5657 7.73836 39.016 10.5879Z" fill="#F9A620"/>
<path d="M93.3926 10.4014C108.6 10.4014 108.6 10.4014 111.774 13.1141C113.155 14.6107 113.602 16.5029 113.564 18.4941C113.431 20.2847 112.812 21.7782 111.503 23.0157C110.598 23.6939 110.598 23.6939 110.152 23.6939C110.152 23.7834 110.152 23.873 110.152 23.9652C110.27 23.9802 110.389 23.9953 110.511 24.0108C111.631 24.2341 112.723 24.9371 113.396 25.8641C114.642 27.9646 114.941 30.1169 114.342 32.5104C113.696 34.547 112.536 35.9041 110.693 36.9436C105.662 39.4713 97.8269 38.2072 93.3926 38.2072C93.3926 29.0313 93.3926 19.8554 93.3926 10.4014ZM100.015 15.42C100.015 17.5685 100.015 19.717 100.015 21.9306C103.257 22.1602 103.257 22.1602 106.153 20.9414C106.921 20.1132 106.995 19.2941 106.96 18.1799C106.864 17.3378 106.58 16.8641 106.004 16.2592C104.671 15.3757 103.189 15.4001 101.645 15.4115C100.838 15.4157 100.838 15.4157 100.015 15.42ZM100.015 26.271C100.015 28.5538 100.015 30.8366 100.015 33.1886C100.994 33.197 100.994 33.197 101.992 33.2056C102.193 33.208 102.395 33.2105 102.602 33.213C105.05 33.2709 105.05 33.2709 107.178 32.2391C107.91 31.4466 108.111 30.7258 108.124 29.662C108.028 28.6324 107.75 27.7942 107.009 27.051C105.925 26.3585 104.781 26.2485 103.513 26.2578C103.423 26.2579 103.334 26.2581 103.242 26.2582C102.913 26.2589 102.583 26.2608 102.254 26.2626C101.515 26.2654 100.776 26.2682 100.015 26.271Z" fill="#009CD9"/>
<path d="M139.885 10.4014C154.66 10.4014 154.66 10.4014 157.59 12.8429C157.723 12.9533 157.723 12.9533 157.859 13.0659C159.3 14.3839 159.938 16.2709 160.074 18.1794C160.158 20.1917 159.615 21.8621 158.257 23.3633C157.591 24.0079 156.765 24.4519 155.968 24.9147C156.091 24.9706 156.213 25.0266 156.339 25.0842C158.175 25.9459 159.278 26.907 160.023 28.8482C160.346 29.8738 160.336 30.9094 160.352 31.9763C160.392 34.7302 160.392 34.7302 161.374 37.2578C161.483 37.3551 161.483 37.3551 161.594 37.4543C161.78 37.6647 161.78 37.6647 161.78 38.2072C160.811 38.2347 159.842 38.2537 158.872 38.2668C158.542 38.2723 158.213 38.2797 157.883 38.2891C157.409 38.3023 156.935 38.3084 156.461 38.3132C156.314 38.3188 156.166 38.3244 156.014 38.3302C155.016 38.3308 155.016 38.3308 154.645 37.9749C153.591 36.3335 153.75 34.0706 153.734 32.1964C153.715 31.0118 153.677 29.7363 152.86 28.7973C151.064 27.164 148.671 27.6973 146.372 27.6274C146.372 31.1188 146.372 34.6101 146.372 38.2072C144.231 38.2072 142.09 38.2072 139.885 38.2072C139.885 29.0313 139.885 19.8554 139.885 10.4014ZM146.372 15.42C146.372 17.7475 146.372 20.0751 146.372 22.4732C147.055 22.4844 147.738 22.4956 148.442 22.5071C148.654 22.512 148.866 22.517 149.085 22.5221C150.378 22.5322 151.558 22.4539 152.589 21.5915C152.679 21.4796 152.768 21.3677 152.86 21.2524C152.935 21.1713 153.01 21.0902 153.088 21.0066C153.564 20.2105 153.653 19.2446 153.468 18.3479C153.164 17.2022 152.704 16.4715 151.705 15.8327C150.567 15.3476 149.405 15.3869 148.188 15.403C147.289 15.4114 147.289 15.4114 146.372 15.42Z" fill="#009CD9"/>
<path d="M118.26 10.4014C124.236 10.4014 130.213 10.4014 136.371 10.4014C136.371 12.0575 136.371 13.7137 136.371 15.42C132.535 15.42 128.699 15.42 124.747 15.42C124.747 17.3447 124.747 19.2694 124.747 21.2524C127.958 21.2524 131.17 21.2524 134.478 21.2524C134.478 22.9533 134.478 24.6542 134.478 26.4067C131.267 26.4067 128.056 26.4067 124.747 26.4067C124.747 28.6447 124.747 30.8827 124.747 33.1886C128.583 33.1886 132.419 33.1886 136.371 33.1886C136.371 34.8447 136.371 36.5009 136.371 38.2072C130.394 38.2072 124.417 38.2072 118.26 38.2072C118.26 29.0313 118.26 19.8554 118.26 10.4014Z" fill="#009CD9"/>
<path d="M50.1426 10.4014C56.1191 10.4014 62.0957 10.4014 68.2534 10.4014C68.2534 12.0575 68.2534 13.7137 68.2534 15.42C64.4177 15.42 60.582 15.42 56.63 15.42C56.63 17.3447 56.63 19.2694 56.63 21.2524C59.8413 21.2524 63.0526 21.2524 66.3612 21.2524C66.3612 22.9533 66.3612 24.6542 66.3612 26.4067C63.1499 26.4067 59.9386 26.4067 56.63 26.4067C56.63 28.6447 56.63 30.8827 56.63 33.1886C60.4657 33.1886 64.3014 33.1886 68.2534 33.1886C68.2534 34.8447 68.2534 36.5009 68.2534 38.2072C62.2768 38.2072 56.3002 38.2072 50.1426 38.2072C50.1426 29.0313 50.1426 19.8554 50.1426 10.4014Z" fill="#009CD9"/>
<path d="M162.051 10.4014C168.964 10.4014 175.877 10.4014 183 10.4014C183 12.0575 183 13.7137 183 15.42C180.591 15.42 178.183 15.42 175.701 15.42C175.701 22.9398 175.701 30.4596 175.701 38.2072C173.561 38.2072 171.42 38.2072 169.214 38.2072C169.214 30.6874 169.214 23.1676 169.214 15.42C166.85 15.42 164.486 15.42 162.051 15.42C162.051 13.7638 162.051 12.1077 162.051 10.4014Z" fill="#009CD9"/>
<path d="M71.7676 10.4014C73.9084 10.4014 76.0493 10.4014 78.255 10.4014C78.255 17.9212 78.255 25.4409 78.255 33.1886C82.1799 33.1886 86.1048 33.1886 90.1487 33.1886C90.1487 34.8447 90.1487 36.5009 90.1487 38.2072C84.0829 38.2072 78.0172 38.2072 71.7676 38.2072C71.7676 29.0313 71.7676 19.8554 71.7676 10.4014Z" fill="#009CD9"/>
<path d="M5.94695 7.14648C5.74325 7.70268 5.47156 8.19278 5.17825 8.70632C3.05426 12.5823 2.48524 17.5126 3.51416 21.7954C3.53663 21.89 3.55911 21.9845 3.58226 22.0819C4.38623 25.3407 5.98292 28.1574 8.24458 30.6119C8.34738 30.7247 8.45017 30.8375 8.55607 30.9537C11.6992 34.2525 16.4128 36.3571 20.9566 36.4719C26.0921 36.5315 30.4693 35.1163 34.4647 31.8327C34.6155 31.6782 34.6155 31.6782 34.7693 31.5206C35.0053 31.2901 35.0053 31.2901 35.2756 31.2901C34.1623 34.4622 30.2524 37.0162 27.3817 38.4646C22.9281 40.5911 17.5142 40.8966 12.8556 39.2632C10.5548 38.4104 8.46365 37.2656 6.62272 35.6305C6.55637 35.5728 6.49001 35.5151 6.42164 35.4557C2.79192 32.2947 0.400321 27.7086 0.000123352 22.8805C-0.25704 16.8341 1.42107 11.9021 5.43167 7.3812C5.67664 7.14648 5.67664 7.14648 5.94695 7.14648Z" fill="#058C42"/>
<path d="M23.6902 0.483633C28.5477 0.34197 33.2368 2.33841 36.7536 5.63819C38.9284 7.75151 38.9284 7.75151 39.0604 8.77399C38.914 8.66379 38.7676 8.55358 38.6212 8.44338C38.5213 8.36889 38.4215 8.29441 38.3187 8.21766C38.0856 8.04086 37.8551 7.86049 37.627 7.67723C34.0467 4.85231 29.3626 3.63921 24.8523 4.1199C20.0576 4.70107 15.696 7.15093 12.6967 10.9527C9.78241 14.8014 8.57124 19.6734 9.2165 24.4402C9.56227 26.7343 10.2267 29.47 11.7194 31.3017C11.7771 31.3873 11.8348 31.473 11.8943 31.5612C11.8497 31.6955 11.8051 31.8298 11.7591 31.9681C9.30824 29.7006 7.56679 26.7639 6.657 23.5501C6.63013 23.4558 6.60327 23.3615 6.57559 23.2644C5.35174 18.701 6.04784 13.6671 8.36584 9.56762C9.12973 8.28507 10.0542 7.13869 11.0833 6.06123C11.184 5.9516 11.2847 5.84197 11.3885 5.72902C14.6191 2.32099 19.0845 0.729413 23.6902 0.483633Z" fill="#009CD9"/>
<path d="M106.232 41.7339C107.035 41.7339 107.838 41.7339 108.665 41.7339C109.379 42.6386 109.379 42.6386 109.571 43.1003C109.947 43.9399 110.427 44.7164 110.895 45.5063C111.06 45.7896 111.225 46.073 111.389 46.3567C111.496 46.5397 111.496 46.5397 111.604 46.7264C111.711 46.9132 111.813 47.1025 111.909 47.2951C111.954 45.4599 111.998 43.6247 112.044 41.7339C112.802 41.7339 113.561 41.7339 114.342 41.7339C114.342 44.9119 114.342 48.0899 114.342 51.3642C113.539 51.3642 112.736 51.3642 111.909 51.3642C111.798 51.1658 111.687 50.9673 111.572 50.7628C111.42 50.4914 111.267 50.2199 111.115 49.9485C111.042 49.819 110.97 49.6895 110.895 49.5561C110.212 48.3405 109.506 47.1423 108.8 45.9387C108.756 47.7291 108.711 49.5195 108.665 51.3642C107.862 51.3642 107.06 51.3642 106.232 51.3642C106.232 48.1862 106.232 45.0082 106.232 41.7339Z" fill="#F9A620"/>
<path d="M96.7715 41.7339C97.5743 41.7339 98.3771 41.7339 99.2043 41.7339C99.2043 43.0319 99.2043 44.33 99.2043 45.6674C100.319 45.6674 101.434 45.6674 102.583 45.6674C102.583 44.3693 102.583 43.0713 102.583 41.7339C103.341 41.7339 104.1 41.7339 104.881 41.7339C104.881 44.9119 104.881 48.0899 104.881 51.3642C104.123 51.3642 103.364 51.3642 102.583 51.3642C102.583 50.1109 102.583 48.8576 102.583 47.5663C101.468 47.5663 100.353 47.5663 99.2043 47.5663C99.2043 48.8196 99.2043 50.0729 99.2043 51.3642C98.4015 51.3642 97.5986 51.3642 96.7715 51.3642C96.7715 48.1862 96.7715 45.0082 96.7715 41.7339Z" fill="#F9A620"/>
<path d="M138.137 41.8101C139.231 42.4166 139.998 43.2028 140.362 44.4138C140.5 45.0754 140.457 45.7655 140.46 46.4388C140.462 46.5943 140.465 46.7498 140.468 46.9101C140.475 48.3686 140.215 49.4676 139.209 50.5503C138.211 51.4582 137.107 51.563 135.794 51.5422C134.788 51.4576 133.942 51.0834 133.2 50.3935C132.245 49.2426 132.152 48.0402 132.139 46.6083C132.135 46.4615 132.131 46.3147 132.127 46.1635C132.116 44.7505 132.418 43.5444 133.406 42.501C134.615 41.4641 136.664 41.2022 138.137 41.8101ZM135.155 43.7684C134.291 44.8922 134.387 46.353 134.479 47.7019C134.615 48.5118 134.881 49.1054 135.56 49.6008C136.122 49.7678 136.439 49.7548 137.005 49.6008C137.622 49.2271 137.862 48.816 138.073 48.1148C138.174 47.6081 138.159 47.098 138.162 46.5829C138.165 46.4715 138.168 46.3601 138.17 46.2454C138.176 45.2935 138.006 44.5567 137.427 43.7769C136.677 43.2246 135.919 43.2105 135.155 43.7684Z" fill="#F9A620"/>
<path d="M121.514 41.8101C122.607 42.4163 123.374 43.202 123.739 44.4122C123.881 45.0935 123.839 45.8049 123.845 46.4981C123.849 46.659 123.853 46.8198 123.857 46.9856C123.867 48.428 123.573 49.5285 122.577 50.5922C121.582 51.4657 120.462 51.5625 119.185 51.5374C118.172 51.4639 117.323 51.0872 116.577 50.3935C115.622 49.2426 115.529 48.0402 115.516 46.6083C115.512 46.4615 115.508 46.3147 115.504 46.1635C115.493 44.7505 115.795 43.5444 116.783 42.501C117.992 41.4641 120.041 41.2022 121.514 41.8101ZM118.532 43.7684C117.668 44.8922 117.764 46.353 117.856 47.7019C117.992 48.5118 118.258 49.1054 118.937 49.6008C119.499 49.7678 119.816 49.7548 120.382 49.6008C120.999 49.227 121.239 48.8158 121.45 48.1145C121.551 47.6106 121.536 47.1037 121.539 46.5914C121.542 46.4811 121.544 46.3709 121.547 46.2573C121.553 45.3245 121.432 44.4212 120.804 43.7006C120.005 43.2728 119.29 43.215 118.532 43.7684Z" fill="#F9A620"/>
<path d="M147.753 41.9499C148.334 42.4075 148.841 42.9238 149.077 43.6332C149.077 43.9913 149.077 44.3494 149.077 44.7183C148.363 44.7183 147.649 44.7183 146.914 44.7183C146.78 44.405 146.647 44.0916 146.509 43.7688C146.038 43.4449 145.573 43.454 145.013 43.541C144.534 43.7101 144.351 44.0281 144.076 44.447C143.852 45.1207 143.91 45.8186 143.907 46.524C143.904 46.6771 143.901 46.8301 143.899 46.9878C143.894 47.91 143.919 48.5986 144.574 49.3046C145.331 49.6943 146.109 49.6172 146.914 49.4656C146.914 48.8837 146.914 48.3019 146.914 47.7023C146.379 47.7023 145.844 47.7023 145.292 47.7023C145.292 47.21 145.292 46.7176 145.292 46.2103C146.63 46.2103 147.968 46.2103 149.347 46.2103C149.372 46.8398 149.397 47.4692 149.423 48.1177C149.434 48.3144 149.445 48.5112 149.457 48.7138C149.481 49.9709 149.481 49.9709 149.092 50.4731C147.751 51.5444 146.137 51.6837 144.481 51.5002C143.429 51.2531 142.671 50.7403 142.015 49.881C141.454 48.8957 141.462 47.9562 141.465 46.8535C141.466 46.5681 141.463 46.2828 141.459 45.9973C141.452 44.4975 141.636 43.518 142.697 42.4108C143.909 41.3117 146.314 41.1445 147.753 41.9499Z" fill="#F9A620"/>
<path d="M80.6875 41.7339C82.8284 41.7339 84.9692 41.7339 87.1749 41.7339C87.1749 42.3158 87.1749 42.8977 87.1749 43.4972C85.8369 43.4972 84.4989 43.4972 83.1203 43.4972C83.1203 44.1238 83.1203 44.7505 83.1203 45.3961C84.2353 45.3961 85.3503 45.3961 86.4992 45.3961C86.4992 46.0228 86.4992 46.6494 86.4992 47.2951C85.3841 47.2951 84.2691 47.2951 83.1203 47.2951C83.1203 48.056 83.1203 48.8169 83.1203 49.6009C84.4583 49.6009 85.7964 49.6009 87.1749 49.6009C87.1749 50.1828 87.1749 50.7647 87.1749 51.3642C85.0341 51.3642 82.8932 51.3642 80.6875 51.3642C80.6875 48.1862 80.6875 45.0082 80.6875 41.7339Z" fill="#F9A620"/>
<path d="M94.7855 42.2935C95.586 43.1529 95.6894 43.8062 95.6894 44.9894C94.9311 44.9894 94.1729 44.9894 93.3917 44.9894C93.3123 44.6956 93.3123 44.6956 93.2312 44.3959C93.0699 43.8913 93.0699 43.8913 92.6737 43.5567C91.8675 43.4217 91.8675 43.4217 91.1279 43.7262C90.367 44.5111 90.5039 45.5052 90.5028 46.5322C90.4995 46.6959 90.4962 46.8595 90.4928 47.0282C90.4897 47.9579 90.5191 48.5837 91.0941 49.3298C91.5209 49.6076 91.7485 49.6022 92.2598 49.5756C92.7999 49.46 92.7999 49.46 93.1214 49.0585C93.2106 48.7004 93.2998 48.3423 93.3917 47.9734C94.1499 47.9734 94.9082 47.9734 95.6894 47.9734C95.6894 49.0326 95.6555 49.8787 94.9054 50.6724C93.7406 51.603 92.3865 51.6118 90.9589 51.5C89.9862 51.2888 89.2528 50.8115 88.6613 50.008C87.7238 48.3874 87.725 45.9614 88.1714 44.1665C88.4681 43.2452 88.9785 42.463 89.8186 41.9629C91.3203 41.2231 93.3949 41.3983 94.7855 42.2935Z" fill="#F9A620"/>
<path d="M149.752 41.7339C150.599 41.7339 151.447 41.7339 152.32 41.7339C152.9 42.9872 153.48 44.2405 154.077 45.5318C154.319 45.045 154.319 45.045 154.567 44.5484C155.034 43.6102 155.502 42.6721 155.969 41.7339C156.817 41.7339 157.664 41.7339 158.537 41.7339C158.4 42.0108 158.264 42.2878 158.123 42.5731C158.074 42.6744 158.025 42.7757 157.974 42.8801C157.653 43.5359 157.305 44.1692 156.937 44.8001C155.668 47.0168 155.121 48.7437 155.293 51.3642C154.49 51.3642 153.688 51.3642 152.861 51.3642C152.886 51.0455 152.886 51.0455 152.912 50.7205C153.033 47.751 151.887 45.7222 150.428 43.2259C150.29 42.9852 150.152 42.744 150.016 42.5022C149.938 42.3651 149.938 42.3651 149.858 42.2254C149.752 42.0052 149.752 42.0052 149.752 41.7339Z" fill="#F9A620"/>
<path d="M72.5781 41.7339C75.0312 41.7339 77.4843 41.7339 80.0117 41.7339C80.0117 42.3158 80.0117 42.8977 80.0117 43.4972C79.1642 43.4972 78.3168 43.4972 77.4437 43.4972C77.4437 46.0933 77.4437 48.6894 77.4437 51.3642C76.6855 51.3642 75.9273 51.3642 75.1461 51.3642C75.1461 48.7681 75.1461 46.172 75.1461 43.4972C74.2986 43.4972 73.4512 43.4972 72.5781 43.4972C72.5781 42.9153 72.5781 42.3334 72.5781 41.7339Z" fill="#F9A620"/>
<path d="M125.018 41.7339C125.776 41.7339 126.534 41.7339 127.315 41.7339C127.315 44.33 127.315 46.9261 127.315 49.6009C128.698 49.6009 130.08 49.6009 131.505 49.6009C131.505 50.1828 131.505 50.7647 131.505 51.3642C129.364 51.3642 127.223 51.3642 125.018 51.3642C125.018 48.1862 125.018 45.0082 125.018 41.7339Z" fill="#F9A620"/>
<path d="M5.94609 7.14648C5.85317 7.46863 5.85317 7.46863 5.67578 7.82468C5.32099 8.0027 5.32099 8.0027 5 8.09595C5.42411 7.14648 5.42411 7.14648 5.94609 7.14648Z" fill="#058C42"/>
</g>
<defs>
<clipPath id="clip0_405_29714">
<rect width="183" height="51" fill="white" transform="translate(0 0.5)"/>
</clipPath>
</defs>
</svg>
