<svg width="320" height="129" viewBox="0 0 320 129" fill="none" xmlns="http://www.w3.org/2000/svg">
<g clip-path="url(#clip0_405_26921)">
<path d="M76.8269 16.0215C77.5924 16.6847 78.3171 17.3854 79.0397 18.0954C79.2086 18.252 79.3776 18.4086 79.5517 18.57C84.362 23.1376 86.9707 29.9795 87.2379 36.5429C87.4358 44.5815 84.7215 51.4658 79.2538 57.3028C79.123 57.4483 78.9921 57.5938 78.8573 57.7438C74.1686 62.7607 67.1832 65.1725 60.4913 65.5302C57.66 65.5793 54.541 65.3178 51.8388 64.4119C51.7681 64.2697 51.6974 64.1275 51.6246 63.981C51.7612 63.9552 51.8979 63.9293 52.0387 63.9026C60.4018 62.2969 67.1359 58.8494 72.0186 51.6471C73.774 48.8797 74.9353 46.0134 75.827 42.8693C75.9683 42.3717 76.1097 41.874 76.2553 41.3613C78.7998 41.2902 81.3442 41.2192 83.9658 41.1459C82.4009 38.4137 80.8357 35.682 79.2538 32.9597C78.2127 31.1679 77.1782 29.3724 76.1482 27.5741C73.0577 22.1473 73.0577 22.1473 69.8299 16.8028C69.7613 16.9258 69.6926 17.0489 69.6219 17.1756C68.168 19.7787 66.6971 22.3706 65.1977 24.9474C63.8702 27.2292 62.5579 29.5196 61.246 31.8105C60.8235 32.5477 60.4007 33.2848 59.9776 34.0217C59.8364 34.2678 59.6951 34.5139 59.5496 34.7674C59.2835 35.231 59.0174 35.6946 58.7512 36.1582C57.7987 37.8181 56.8536 39.4819 55.9082 41.1459C58.6647 41.217 61.4212 41.2881 64.2612 41.3613C64.0596 42.3755 63.7639 43.0112 63.2171 43.8522C63.1316 43.9837 63.0461 44.1153 62.9579 44.2508C60.1642 48.4306 56.181 51.04 51.2473 52.0367C46.794 52.6526 42.7156 51.6341 38.9997 49.1209C35.386 46.3365 33.248 42.2551 32.6228 37.7445C32.0865 31.5864 34.0346 25.7163 37.8351 20.8614C42.8709 14.8248 49.2426 10.9958 57.1216 10.1669C64.1203 9.57504 71.3592 11.4958 76.8269 16.0215Z" fill="#F9A620"/>
<path d="M162.998 15.7256C187.098 15.7256 187.098 15.7256 192.127 20.0341C194.316 22.411 195.024 25.4163 194.964 28.5787C194.753 31.4226 193.771 33.7947 191.698 35.7602C190.263 36.8373 190.263 36.8373 189.556 36.8373C189.556 36.9795 189.556 37.1217 189.556 37.2681C189.744 37.292 189.932 37.3159 190.126 37.3405C191.9 37.6953 193.631 38.8117 194.697 40.2841C196.672 43.6201 197.146 47.0386 196.196 50.8399C195.172 54.0745 193.335 56.2299 190.414 57.8808C182.441 61.8955 170.025 59.8878 162.998 59.8878C162.998 45.3143 162.998 30.7407 162.998 15.7256ZM173.493 23.6963C173.493 27.1087 173.493 30.521 173.493 34.0368C178.63 34.4014 178.63 34.4014 183.219 32.4657C184.437 31.1503 184.555 29.8494 184.498 28.0797C184.346 26.7422 183.896 25.9899 182.984 25.0293C180.871 23.626 178.522 23.6648 176.076 23.6829C174.798 23.6895 174.798 23.6895 173.493 23.6963ZM173.493 40.9304C173.493 44.556 173.493 48.1816 173.493 51.9171C175.043 51.9304 175.043 51.9304 176.625 51.944C176.945 51.9479 177.264 51.9519 177.593 51.9559C181.472 52.0478 181.472 52.0478 184.844 50.4091C186.004 49.1504 186.322 48.0056 186.344 46.316C186.191 44.6807 185.75 43.3495 184.577 42.1691C182.859 41.0693 181.045 40.8945 179.036 40.9093C178.894 40.9096 178.752 40.9098 178.606 40.91C178.084 40.9111 177.562 40.9141 177.04 40.9169C175.87 40.9214 174.699 40.9258 173.493 40.9304Z" fill="#009CD9"/>
<path d="M236.676 15.7256C260.09 15.7256 260.09 15.7256 264.733 19.6032C264.944 19.7786 264.944 19.7786 265.159 19.9575C267.443 22.0508 268.454 25.0478 268.67 28.0789C268.803 31.275 267.943 33.9279 265.791 36.3122C264.735 37.336 263.425 38.0412 262.163 38.7761C262.357 38.865 262.551 38.9538 262.751 39.0454C265.66 40.414 267.408 41.9405 268.589 45.0235C269.101 46.6524 269.084 48.2971 269.111 49.9917C269.174 54.3655 269.174 54.3655 270.73 58.3798C270.903 58.5344 270.903 58.5344 271.078 58.692C271.373 59.0261 271.373 59.0261 271.373 59.8878C269.837 59.9315 268.301 59.9617 266.765 59.9825C266.242 59.9912 265.72 60.0029 265.197 60.0178C264.446 60.0388 263.695 60.0485 262.944 60.0561C262.71 60.065 262.477 60.0739 262.237 60.0831C260.654 60.084 260.654 60.084 260.066 59.5188C258.396 56.9118 258.648 53.318 258.622 50.3413C258.592 48.4599 258.532 46.4339 257.237 44.9427C254.391 42.3486 250.599 43.1956 246.956 43.0846C246.956 48.6297 246.956 54.1747 246.956 59.8878C243.564 59.8878 240.171 59.8878 236.676 59.8878C236.676 45.3143 236.676 30.7407 236.676 15.7256ZM246.956 23.6963C246.956 27.393 246.956 31.0897 246.956 34.8985C248.039 34.9162 249.121 34.934 250.236 34.9523C250.572 34.9602 250.909 34.968 251.255 34.9761C253.304 34.9923 255.175 34.8679 256.809 33.4982C256.95 33.3205 257.091 33.1427 257.237 32.9596C257.356 32.8308 257.476 32.7019 257.599 32.5692C258.353 31.3048 258.494 29.7707 258.201 28.3465C257.72 26.5269 256.99 25.3664 255.407 24.3519C253.605 23.5813 251.763 23.6438 249.834 23.6694C248.41 23.6827 248.41 23.6827 246.956 23.6963Z" fill="#009CD9"/>
<path d="M202.408 15.7256C211.879 15.7256 221.35 15.7256 231.108 15.7256C231.108 18.3559 231.108 20.9863 231.108 23.6963C225.03 23.6963 218.951 23.6963 212.689 23.6963C212.689 26.7532 212.689 29.8101 212.689 32.9596C217.778 32.9596 222.867 32.9596 228.11 32.9596C228.11 35.6611 228.11 38.3625 228.11 41.1458C223.021 41.1458 217.932 41.1458 212.689 41.1458C212.689 44.7003 212.689 48.2548 212.689 51.9171C218.767 51.9171 224.846 51.9171 231.108 51.9171C231.108 54.5474 231.108 57.1778 231.108 59.8878C221.637 59.8878 212.166 59.8878 202.408 59.8878C202.408 45.3143 202.408 30.7407 202.408 15.7256Z" fill="#009CD9"/>
<path d="M94.4609 15.7256C103.932 15.7256 113.403 15.7256 123.161 15.7256C123.161 18.3559 123.161 20.9863 123.161 23.6963C117.083 23.6963 111.004 23.6963 104.742 23.6963C104.742 26.7532 104.742 29.8101 104.742 32.9596C109.831 32.9596 114.919 32.9596 120.163 32.9596C120.163 35.6611 120.163 38.3625 120.163 41.1458C115.074 41.1458 109.985 41.1458 104.742 41.1458C104.742 44.7003 104.742 48.2548 104.742 51.9171C110.82 51.9171 116.898 51.9171 123.161 51.9171C123.161 54.5474 123.161 57.1778 123.161 59.8878C113.69 59.8878 104.219 59.8878 94.4609 59.8878C94.4609 45.3143 94.4609 30.7407 94.4609 15.7256Z" fill="#009CD9"/>
<path d="M271.803 15.7256C282.758 15.7256 293.713 15.7256 305.001 15.7256C305.001 18.3559 305.001 20.9863 305.001 23.6963C301.184 23.6963 297.367 23.6963 293.435 23.6963C293.435 35.6395 293.435 47.5827 293.435 59.8878C290.042 59.8878 286.65 59.8878 283.154 59.8878C283.154 47.9446 283.154 36.0014 283.154 23.6963C279.408 23.6963 275.662 23.6963 271.803 23.6963C271.803 21.066 271.803 18.4356 271.803 15.7256Z" fill="#009CD9"/>
<path d="M128.73 15.7256C132.123 15.7256 135.516 15.7256 139.011 15.7256C139.011 27.6688 139.011 39.612 139.011 51.9171C145.231 51.9171 151.451 51.9171 157.859 51.9171C157.859 54.5474 157.859 57.1778 157.859 59.8878C148.247 59.8878 138.634 59.8878 128.73 59.8878C128.73 45.3143 128.73 30.7407 128.73 15.7256Z" fill="#009CD9"/>
<path d="M24.4233 10.5557C24.1005 11.439 23.67 12.2174 23.2052 13.0331C19.8393 19.1891 18.9376 27.0195 20.5681 33.8216C20.6037 33.9718 20.6393 34.122 20.676 34.2767C21.9501 39.4523 24.4803 43.926 28.0644 47.8243C28.2273 48.0034 28.3902 48.1825 28.558 48.3671C33.539 53.6063 41.0085 56.9491 48.2091 57.1313C56.3473 57.2261 63.2839 54.9783 69.6154 49.7631C69.8543 49.5178 69.8543 49.5178 70.0981 49.2675C70.4721 48.9014 70.4721 48.9014 70.9005 48.9014C69.1363 53.9394 62.9402 57.9958 58.391 60.2962C51.3334 63.6736 42.7539 64.1589 35.3715 61.5645C31.7254 60.2101 28.4116 58.3919 25.4942 55.795C25.3891 55.7034 25.2839 55.6117 25.1756 55.5173C19.4236 50.497 15.6336 43.2131 14.9994 35.545C14.5919 25.9419 17.2512 18.1087 23.6068 10.9285C23.995 10.5557 23.995 10.5557 24.4233 10.5557Z" fill="#058C42"/>
<path d="M52.5412 -0.0258803C60.2389 -0.250874 67.6696 2.91994 73.2428 8.16076C76.6891 11.5172 76.6891 11.5172 76.8984 13.1412C76.6663 12.9661 76.4343 12.7911 76.2023 12.6161C76.0441 12.4978 75.8859 12.3795 75.7229 12.2576C75.3535 11.9768 74.9883 11.6903 74.6269 11.3992C68.9532 6.9126 61.5302 4.98592 54.3827 5.74938C46.7845 6.67241 39.8728 10.5634 35.1198 16.6014C30.5015 22.7141 28.5822 30.452 29.6047 38.0228C30.1526 41.6664 31.2056 46.0113 33.5711 48.9205C33.6625 49.0565 33.7539 49.1925 33.8481 49.3326C33.7775 49.5459 33.7068 49.7592 33.634 49.9789C29.7501 46.3775 26.9904 41.7134 25.5487 36.6091C25.5061 36.4593 25.4635 36.3096 25.4197 36.1553C23.4802 28.9077 24.5833 20.9125 28.2567 14.4016C29.4672 12.3646 30.9322 10.5439 32.5631 8.83265C32.7226 8.65854 32.8822 8.48442 33.0466 8.30503C38.1662 2.89228 45.2424 0.364476 52.5412 -0.0258803Z" fill="#009CD9"/>
<path d="M183.346 65.4893C184.618 65.4893 185.89 65.4893 187.201 65.4893C188.332 66.9262 188.332 66.9262 188.637 67.6595C189.232 68.993 189.992 70.2263 190.735 71.4808C190.997 71.9306 191.258 72.3808 191.518 72.8314C191.686 73.1221 191.686 73.1221 191.858 73.4186C192.027 73.7152 192.189 74.0159 192.341 74.3217C192.412 71.407 192.483 68.4923 192.555 65.4893C193.757 65.4893 194.959 65.4893 196.197 65.4893C196.197 70.5367 196.197 75.5841 196.197 80.7845C194.924 80.7845 193.652 80.7845 192.341 80.7845C192.165 80.4693 191.989 80.1541 191.807 79.8294C191.566 79.3982 191.324 78.9671 191.083 78.536C190.968 78.3303 190.853 78.1247 190.735 77.9128C189.652 75.9821 188.533 74.0791 187.415 72.1674C187.344 75.0111 187.274 77.8547 187.201 80.7845C185.929 80.7845 184.656 80.7845 183.346 80.7845C183.346 75.7371 183.346 70.6896 183.346 65.4893Z" fill="#F9A620"/>
<path d="M168.354 65.4893C169.626 65.4893 170.898 65.4893 172.209 65.4893C172.209 67.5509 172.209 69.6125 172.209 71.7366C173.976 71.7366 175.743 71.7366 177.563 71.7366C177.563 69.675 177.563 67.6134 177.563 65.4893C178.765 65.4893 179.966 65.4893 181.204 65.4893C181.204 70.5367 181.204 75.5841 181.204 80.7845C180.003 80.7845 178.801 80.7845 177.563 80.7845C177.563 78.7939 177.563 76.8034 177.563 74.7526C175.796 74.7526 174.029 74.7526 172.209 74.7526C172.209 76.7431 172.209 78.7336 172.209 80.7845C170.937 80.7845 169.664 80.7845 168.354 80.7845C168.354 75.7371 168.354 70.6896 168.354 65.4893Z" fill="#F9A620"/>
<path d="M233.906 65.6103C235.64 66.5735 236.856 67.8222 237.433 69.7456C237.652 70.7964 237.583 71.8925 237.588 72.9617C237.592 73.2087 237.596 73.4558 237.601 73.7103C237.611 76.0267 237.2 77.7722 235.606 79.4918C234.024 80.9337 232.275 81.1002 230.194 81.0671C228.6 80.9328 227.258 80.3384 226.083 79.2427C224.57 77.415 224.422 75.5052 224.402 73.231C224.396 72.9979 224.39 72.7648 224.383 72.5246C224.366 70.2804 224.844 68.3647 226.41 66.7077C228.325 65.0608 231.572 64.6449 233.906 65.6103ZM229.181 68.7205C227.813 70.5055 227.964 72.8255 228.11 74.9679C228.326 76.2542 228.748 77.1969 229.824 77.9838C230.713 78.249 231.216 78.2283 232.113 77.9838C233.09 77.3902 233.472 76.7373 233.805 75.6236C233.966 74.819 233.941 74.0088 233.946 73.1906C233.951 73.0137 233.955 72.8368 233.96 72.6546C233.969 71.1428 233.699 69.9726 232.782 68.734C231.593 67.857 230.392 67.8345 229.181 68.7205Z" fill="#F9A620"/>
<path d="M207.561 65.6103C209.294 66.5732 210.509 67.821 211.087 69.7431C211.312 70.8251 211.247 71.9549 211.255 73.056C211.261 73.3115 211.268 73.567 211.274 73.8302C211.29 76.1211 210.824 77.8689 209.246 79.5583C207.67 80.9457 205.895 81.0994 203.871 81.0595C202.266 80.9428 200.919 80.3446 199.737 79.2427C198.224 77.415 198.076 75.5052 198.056 73.231C198.05 72.9979 198.044 72.7648 198.038 72.5246C198.02 70.2804 198.498 68.3647 200.064 66.7077C201.98 65.0608 205.227 64.6449 207.561 65.6103ZM202.835 68.7205C201.467 70.5055 201.619 72.8255 201.764 74.9679C201.98 76.2542 202.402 77.1969 203.478 77.9838C204.368 78.249 204.871 78.2283 205.767 77.9838C206.744 77.3902 207.126 76.7371 207.459 75.6232C207.619 74.8229 207.596 74.0178 207.601 73.2041C207.605 73.029 207.61 72.8539 207.614 72.6735C207.624 71.1921 207.432 69.7574 206.436 68.6128C205.17 67.9334 204.037 67.8417 202.835 68.7205Z" fill="#F9A620"/>
<path d="M249.141 65.8323C250.062 66.559 250.866 67.3791 251.24 68.5057C251.24 69.0745 251.24 69.6432 251.24 70.2291C250.109 70.2291 248.978 70.2291 247.813 70.2291C247.601 69.7315 247.389 69.2339 247.17 68.7212C246.424 68.2067 245.687 68.2211 244.8 68.3593C244.041 68.6279 243.752 69.133 243.315 69.7983C242.961 70.8682 243.052 71.9767 243.047 73.097C243.043 73.3401 243.039 73.5832 243.034 73.8337C243.027 75.2983 243.067 76.392 244.105 77.5132C245.303 78.1323 246.536 78.0098 247.813 77.769C247.813 76.8449 247.813 75.9207 247.813 74.9685C246.965 74.9685 246.117 74.9685 245.243 74.9685C245.243 74.1865 245.243 73.4045 245.243 72.5988C247.363 72.5988 249.484 72.5988 251.668 72.5988C251.708 73.5985 251.748 74.5982 251.789 75.6282C251.806 75.9407 251.824 76.2531 251.842 76.575C251.88 78.5714 251.88 78.5714 251.264 79.3691C249.139 81.0706 246.581 81.2918 243.958 81.0004C242.29 80.6079 241.088 79.7934 240.049 78.4288C239.16 76.8638 239.173 75.3718 239.178 73.6204C239.179 73.167 239.174 72.7139 239.168 72.2605C239.157 69.8785 239.449 68.3228 241.131 66.5644C243.05 64.8187 246.862 64.5531 249.141 65.8323Z" fill="#F9A620"/>
<path d="M142.865 65.4893C146.258 65.4893 149.65 65.4893 153.146 65.4893C153.146 66.4134 153.146 67.3376 153.146 68.2898C151.026 68.2898 148.905 68.2898 146.72 68.2898C146.72 69.2851 146.72 70.2803 146.72 71.3057C148.487 71.3057 150.254 71.3057 152.075 71.3057C152.075 72.301 152.075 73.2963 152.075 74.3217C150.308 74.3217 148.541 74.3217 146.72 74.3217C146.72 75.5302 146.72 76.7388 146.72 77.9839C148.841 77.9839 150.961 77.9839 153.146 77.9839C153.146 78.9081 153.146 79.8323 153.146 80.7845C149.753 80.7845 146.361 80.7845 142.865 80.7845C142.865 75.7371 142.865 70.6896 142.865 65.4893Z" fill="#F9A620"/>
<path d="M165.207 66.3777C166.476 67.7426 166.64 68.7802 166.64 70.6593C165.438 70.6593 164.237 70.6593 162.999 70.6593C162.873 70.1928 162.873 70.1928 162.744 69.7168C162.489 68.9154 162.489 68.9154 161.861 68.3839C160.583 68.1695 160.583 68.1695 159.411 68.6531C158.205 69.8997 158.422 71.4785 158.421 73.1098C158.415 73.3697 158.41 73.6296 158.405 73.8974C158.4 75.374 158.446 76.368 159.358 77.5529C160.034 77.9942 160.395 77.9855 161.205 77.9434C162.061 77.7597 162.061 77.7597 162.57 77.1221C162.712 76.5533 162.853 75.9846 162.999 75.3987C164.2 75.3987 165.402 75.3987 166.64 75.3987C166.64 77.0809 166.586 78.4248 165.397 79.6853C163.552 81.1633 161.406 81.1774 159.143 80.9997C157.602 80.6643 156.44 79.9062 155.502 78.63C154.017 76.0561 154.019 72.2031 154.726 69.3524C155.196 67.8891 156.005 66.6468 157.336 65.8526C159.716 64.6776 163.004 64.9558 165.207 66.3777Z" fill="#F9A620"/>
<path d="M252.312 65.4893C253.655 65.4893 254.998 65.4893 256.382 65.4893C257.301 67.4798 258.22 69.4703 259.166 71.5212C259.551 70.7481 259.551 70.7481 259.943 69.9593C260.683 68.4693 261.424 66.9793 262.165 65.4893C263.508 65.4893 264.851 65.4893 266.234 65.4893C266.018 65.9291 265.801 66.369 265.578 66.8222C265.501 66.9831 265.423 67.1439 265.343 67.3097C264.833 68.3513 264.282 69.357 263.699 70.3591C261.687 73.8798 260.82 76.6225 261.094 80.7845C259.822 80.7845 258.549 80.7845 257.239 80.7845C257.279 80.2784 257.279 80.2784 257.32 79.762C257.511 75.0459 255.695 71.8237 253.383 67.8589C253.164 67.4766 252.947 67.0936 252.731 66.7094C252.607 66.4918 252.607 66.4918 252.481 66.2699C252.312 65.9201 252.312 65.9201 252.312 65.4893Z" fill="#F9A620"/>
<path d="M130.016 65.4893C133.903 65.4893 137.79 65.4893 141.796 65.4893C141.796 66.4134 141.796 67.3376 141.796 68.2898C140.453 68.2898 139.11 68.2898 137.726 68.2898C137.726 72.413 137.726 76.5363 137.726 80.7845C136.525 80.7845 135.323 80.7845 134.085 80.7845C134.085 76.6612 134.085 72.538 134.085 68.2898C132.742 68.2898 131.399 68.2898 130.016 68.2898C130.016 67.3656 130.016 66.4414 130.016 65.4893Z" fill="#F9A620"/>
<path d="M213.117 65.4893C214.319 65.4893 215.52 65.4893 216.758 65.4893C216.758 69.6125 216.758 73.7357 216.758 77.9839C218.949 77.9839 221.14 77.9839 223.398 77.9839C223.398 78.9081 223.398 79.8323 223.398 80.7845C220.005 80.7845 216.613 80.7845 213.117 80.7845C213.117 75.7371 213.117 70.6896 213.117 65.4893Z" fill="#F9A620"/>
<path d="M24.4231 10.5557C24.2758 11.0673 24.2758 11.0673 23.9947 11.6328C23.4325 11.9155 23.4325 11.9155 22.9238 12.0636C23.5959 10.5557 23.5959 10.5557 24.4231 10.5557Z" fill="#058C42"/>
</g>
<path d="M54.495 114.562C54.442 114.066 54.2185 113.68 53.8246 113.403C53.4344 113.127 52.9268 112.989 52.3018 112.989C51.8625 112.989 51.4856 113.055 51.1712 113.188C50.8568 113.32 50.6162 113.5 50.4496 113.727C50.2829 113.955 50.1977 114.214 50.1939 114.506C50.1939 114.748 50.2488 114.958 50.3587 115.136C50.4723 115.314 50.6257 115.466 50.8189 115.591C51.0121 115.712 51.2261 115.814 51.4609 115.898C51.6958 115.981 51.9325 116.051 52.1712 116.108L53.2621 116.381C53.7015 116.483 54.1238 116.621 54.5291 116.795C54.9382 116.97 55.3037 117.189 55.6257 117.455C55.9515 117.72 56.209 118.04 56.3984 118.415C56.5878 118.79 56.6825 119.229 56.6825 119.733C56.6825 120.415 56.5083 121.015 56.1598 121.534C55.8113 122.049 55.3075 122.453 54.6484 122.744C53.9931 123.032 53.1996 123.176 52.2678 123.176C51.3625 123.176 50.5765 123.036 49.9098 122.756C49.2469 122.475 48.728 122.066 48.353 121.528C47.9818 120.991 47.781 120.335 47.7507 119.562H49.8246C49.8549 119.968 49.9799 120.305 50.1996 120.574C50.4193 120.843 50.7053 121.044 51.0575 121.176C51.4136 121.309 51.8113 121.375 52.2507 121.375C52.709 121.375 53.1106 121.307 53.4553 121.17C53.8037 121.03 54.0765 120.837 54.2734 120.591C54.4704 120.341 54.5708 120.049 54.5746 119.716C54.5708 119.413 54.4818 119.163 54.3075 118.966C54.1333 118.765 53.889 118.598 53.5746 118.466C53.264 118.33 52.9003 118.208 52.4837 118.102L51.1598 117.761C50.2015 117.515 49.4439 117.142 48.8871 116.642C48.334 116.138 48.0575 115.47 48.0575 114.636C48.0575 113.951 48.2431 113.35 48.6143 112.835C48.9893 112.32 49.4988 111.92 50.1428 111.636C50.7867 111.348 51.5159 111.205 52.3303 111.205C53.156 111.205 53.8795 111.348 54.5007 111.636C55.1257 111.92 55.6162 112.316 55.9723 112.824C56.3284 113.328 56.5121 113.907 56.5234 114.562H54.495ZM58.4709 123V114.273H60.4368V115.756H60.5391C60.7209 115.256 61.022 114.866 61.4425 114.585C61.8629 114.301 62.3648 114.159 62.9482 114.159C63.5391 114.159 64.0372 114.303 64.4425 114.591C64.8516 114.875 65.1394 115.263 65.3061 115.756H65.397C65.5902 115.271 65.916 114.884 66.3743 114.597C66.8364 114.305 67.3838 114.159 68.0163 114.159C68.8194 114.159 69.4747 114.413 69.9822 114.92C70.4898 115.428 70.7436 116.169 70.7436 117.142V123H68.6811V117.46C68.6811 116.919 68.5372 116.523 68.2493 116.273C67.9614 116.019 67.6091 115.892 67.1925 115.892C66.6963 115.892 66.308 116.047 66.0277 116.358C65.7512 116.665 65.6129 117.064 65.6129 117.557V123H63.5959V117.375C63.5959 116.924 63.4595 116.564 63.1868 116.295C62.9179 116.027 62.5656 115.892 62.13 115.892C61.8345 115.892 61.5656 115.968 61.3232 116.119C61.0807 116.267 60.8875 116.477 60.7436 116.75C60.5997 117.019 60.5277 117.333 60.5277 117.693V123H58.4709ZM75.3416 123.176C74.7886 123.176 74.2905 123.078 73.8473 122.881C73.4079 122.68 73.0594 122.384 72.8018 121.994C72.5481 121.604 72.4212 121.123 72.4212 120.551C72.4212 120.059 72.5121 119.652 72.6939 119.33C72.8757 119.008 73.1238 118.75 73.4382 118.557C73.7526 118.364 74.1068 118.218 74.5007 118.119C74.8984 118.017 75.3094 117.943 75.7337 117.898C76.245 117.845 76.6598 117.797 76.978 117.756C77.2962 117.71 77.5272 117.642 77.6712 117.551C77.8189 117.456 77.8928 117.311 77.8928 117.114V117.08C77.8928 116.652 77.7659 116.32 77.5121 116.085C77.2583 115.85 76.8928 115.733 76.4155 115.733C75.9117 115.733 75.5121 115.843 75.2166 116.062C74.925 116.282 74.728 116.542 74.6257 116.841L72.7053 116.568C72.8568 116.038 73.1068 115.595 73.4553 115.239C73.8037 114.879 74.2299 114.61 74.7337 114.432C75.2375 114.25 75.7943 114.159 76.4041 114.159C76.8246 114.159 77.2431 114.208 77.6598 114.307C78.0765 114.405 78.4571 114.568 78.8018 114.795C79.1465 115.019 79.4231 115.324 79.6314 115.71C79.8435 116.097 79.9496 116.58 79.9496 117.159V123H77.9723V121.801H77.9041C77.7791 122.044 77.603 122.271 77.3757 122.483C77.1522 122.691 76.87 122.86 76.5291 122.989C76.192 123.114 75.7962 123.176 75.3416 123.176ZM75.8757 121.665C76.2886 121.665 76.6465 121.583 76.9496 121.42C77.2526 121.254 77.4856 121.034 77.6484 120.761C77.8151 120.489 77.8984 120.191 77.8984 119.869V118.841C77.834 118.894 77.7242 118.943 77.5689 118.989C77.4174 119.034 77.2469 119.074 77.0575 119.108C76.8681 119.142 76.6806 119.172 76.495 119.199C76.3094 119.225 76.1484 119.248 76.0121 119.267C75.7053 119.309 75.4306 119.377 75.1882 119.472C74.9458 119.566 74.7545 119.699 74.6143 119.869C74.4742 120.036 74.4041 120.252 74.4041 120.517C74.4041 120.896 74.5424 121.182 74.8189 121.375C75.0954 121.568 75.4477 121.665 75.8757 121.665ZM82.0178 123V114.273H84.0121V115.727H84.103C84.2621 115.223 84.5348 114.835 84.9212 114.562C85.3113 114.286 85.7564 114.148 86.2564 114.148C86.37 114.148 86.4969 114.153 86.6371 114.165C86.781 114.172 86.9003 114.186 86.995 114.205V116.097C86.9079 116.066 86.7696 116.04 86.5803 116.017C86.3946 115.991 86.2147 115.977 86.0405 115.977C85.6655 115.977 85.3284 116.059 85.0291 116.222C84.7337 116.381 84.5007 116.602 84.3303 116.886C84.1598 117.17 84.0746 117.498 84.0746 117.869V123H82.0178ZM93.1882 114.273V115.864H88.1712V114.273H93.1882ZM89.4098 112.182H91.4666V120.375C91.4666 120.652 91.5083 120.864 91.5916 121.011C91.6787 121.155 91.7924 121.254 91.9325 121.307C92.0727 121.36 92.228 121.386 92.3984 121.386C92.5272 121.386 92.6446 121.377 92.7507 121.358C92.8606 121.339 92.9439 121.322 93.0007 121.307L93.3473 122.915C93.2375 122.953 93.0803 122.994 92.8757 123.04C92.675 123.085 92.4287 123.112 92.1371 123.119C91.6219 123.134 91.1579 123.057 90.745 122.886C90.3321 122.712 90.0045 122.443 89.7621 122.08C89.5234 121.716 89.406 121.261 89.4098 120.716V112.182ZM105.292 114.562C105.239 114.066 105.015 113.68 104.621 113.403C104.231 113.127 103.724 112.989 103.099 112.989C102.659 112.989 102.282 113.055 101.968 113.188C101.654 113.32 101.413 113.5 101.246 113.727C101.08 113.955 100.995 114.214 100.991 114.506C100.991 114.748 101.046 114.958 101.156 115.136C101.269 115.314 101.423 115.466 101.616 115.591C101.809 115.712 102.023 115.814 102.258 115.898C102.493 115.981 102.729 116.051 102.968 116.108L104.059 116.381C104.498 116.483 104.921 116.621 105.326 116.795C105.735 116.97 106.101 117.189 106.423 117.455C106.748 117.72 107.006 118.04 107.195 118.415C107.385 118.79 107.479 119.229 107.479 119.733C107.479 120.415 107.305 121.015 106.957 121.534C106.608 122.049 106.104 122.453 105.445 122.744C104.79 123.032 103.996 123.176 103.065 123.176C102.159 123.176 101.373 123.036 100.707 122.756C100.044 122.475 99.5249 122.066 99.1499 121.528C98.7786 120.991 98.5779 120.335 98.5476 119.562H100.621C100.652 119.968 100.777 120.305 100.996 120.574C101.216 120.843 101.502 121.044 101.854 121.176C102.21 121.309 102.608 121.375 103.048 121.375C103.506 121.375 103.907 121.307 104.252 121.17C104.601 121.03 104.873 120.837 105.07 120.591C105.267 120.341 105.368 120.049 105.371 119.716C105.368 119.413 105.279 119.163 105.104 118.966C104.93 118.765 104.686 118.598 104.371 118.466C104.061 118.33 103.697 118.208 103.281 118.102L101.957 117.761C100.998 117.515 100.241 117.142 99.6839 116.642C99.1309 116.138 98.8544 115.47 98.8544 114.636C98.8544 113.951 99.04 113.35 99.4112 112.835C99.7862 112.32 100.296 111.92 100.94 111.636C101.584 111.348 102.313 111.205 103.127 111.205C103.953 111.205 104.676 111.348 105.298 111.636C105.923 111.92 106.413 112.316 106.769 112.824C107.125 113.328 107.309 113.907 107.32 114.562H105.292ZM113.075 123.17C112.222 123.17 111.484 122.983 110.859 122.608C110.234 122.233 109.749 121.708 109.404 121.034C109.063 120.36 108.893 119.572 108.893 118.67C108.893 117.769 109.063 116.979 109.404 116.301C109.749 115.623 110.234 115.097 110.859 114.722C111.484 114.347 112.222 114.159 113.075 114.159C113.927 114.159 114.665 114.347 115.29 114.722C115.915 115.097 116.398 115.623 116.739 116.301C117.084 116.979 117.256 117.769 117.256 118.67C117.256 119.572 117.084 120.36 116.739 121.034C116.398 121.708 115.915 122.233 115.29 122.608C114.665 122.983 113.927 123.17 113.075 123.17ZM113.086 121.523C113.548 121.523 113.934 121.396 114.245 121.142C114.556 120.884 114.787 120.54 114.938 120.108C115.094 119.676 115.171 119.195 115.171 118.665C115.171 118.131 115.094 117.648 114.938 117.216C114.787 116.78 114.556 116.434 114.245 116.176C113.934 115.919 113.548 115.79 113.086 115.79C112.612 115.79 112.219 115.919 111.904 116.176C111.594 116.434 111.361 116.78 111.205 117.216C111.054 117.648 110.978 118.131 110.978 118.665C110.978 119.195 111.054 119.676 111.205 120.108C111.361 120.54 111.594 120.884 111.904 121.142C112.219 121.396 112.612 121.523 113.086 121.523ZM121.059 111.364V123H119.002V111.364H121.059ZM128.737 119.33V114.273H130.793V123H128.799V121.449H128.708C128.511 121.937 128.187 122.337 127.737 122.648C127.29 122.958 126.738 123.114 126.083 123.114C125.511 123.114 125.005 122.987 124.566 122.733C124.13 122.475 123.79 122.102 123.543 121.614C123.297 121.121 123.174 120.527 123.174 119.83V114.273H125.231V119.511C125.231 120.064 125.382 120.504 125.685 120.83C125.988 121.155 126.386 121.318 126.879 121.318C127.182 121.318 127.475 121.244 127.759 121.097C128.043 120.949 128.276 120.729 128.458 120.438C128.644 120.142 128.737 119.773 128.737 119.33ZM137.266 114.273V115.864H132.249V114.273H137.266ZM133.488 112.182H135.545V120.375C135.545 120.652 135.586 120.864 135.67 121.011C135.757 121.155 135.871 121.254 136.011 121.307C136.151 121.36 136.306 121.386 136.477 121.386C136.605 121.386 136.723 121.377 136.829 121.358C136.939 121.339 137.022 121.322 137.079 121.307L137.425 122.915C137.316 122.953 137.158 122.994 136.954 123.04C136.753 123.085 136.507 123.112 136.215 123.119C135.7 123.134 135.236 123.057 134.823 122.886C134.41 122.712 134.083 122.443 133.84 122.08C133.602 121.716 133.484 121.261 133.488 120.716V112.182ZM138.987 123V114.273H141.043V123H138.987ZM140.021 113.034C139.695 113.034 139.415 112.926 139.18 112.71C138.945 112.491 138.827 112.227 138.827 111.92C138.827 111.61 138.945 111.347 139.18 111.131C139.415 110.911 139.695 110.801 140.021 110.801C140.35 110.801 140.63 110.911 140.862 111.131C141.096 111.347 141.214 111.61 141.214 111.92C141.214 112.227 141.096 112.491 140.862 112.71C140.63 112.926 140.35 113.034 140.021 113.034ZM146.965 123.17C146.113 123.17 145.374 122.983 144.749 122.608C144.124 122.233 143.639 121.708 143.295 121.034C142.954 120.36 142.783 119.572 142.783 118.67C142.783 117.769 142.954 116.979 143.295 116.301C143.639 115.623 144.124 115.097 144.749 114.722C145.374 114.347 146.113 114.159 146.965 114.159C147.817 114.159 148.556 114.347 149.181 114.722C149.806 115.097 150.289 115.623 150.63 116.301C150.975 116.979 151.147 117.769 151.147 118.67C151.147 119.572 150.975 120.36 150.63 121.034C150.289 121.708 149.806 122.233 149.181 122.608C148.556 122.983 147.817 123.17 146.965 123.17ZM146.977 121.523C147.439 121.523 147.825 121.396 148.136 121.142C148.446 120.884 148.677 120.54 148.829 120.108C148.984 119.676 149.062 119.195 149.062 118.665C149.062 118.131 148.984 117.648 148.829 117.216C148.677 116.78 148.446 116.434 148.136 116.176C147.825 115.919 147.439 115.79 146.977 115.79C146.503 115.79 146.109 115.919 145.795 116.176C145.484 116.434 145.251 116.78 145.096 117.216C144.944 117.648 144.869 118.131 144.869 118.665C144.869 119.195 144.944 119.676 145.096 120.108C145.251 120.54 145.484 120.884 145.795 121.142C146.109 121.396 146.503 121.523 146.977 121.523ZM154.95 117.886V123H152.893V114.273H154.859V115.756H154.961C155.162 115.267 155.482 114.879 155.921 114.591C156.364 114.303 156.912 114.159 157.563 114.159C158.165 114.159 158.69 114.288 159.137 114.545C159.588 114.803 159.936 115.176 160.183 115.665C160.433 116.153 160.556 116.746 160.552 117.443V123H158.495V117.761C158.495 117.178 158.344 116.722 158.04 116.392C157.741 116.062 157.326 115.898 156.796 115.898C156.436 115.898 156.116 115.977 155.836 116.136C155.559 116.292 155.342 116.517 155.183 116.812C155.027 117.108 154.95 117.466 154.95 117.886ZM169.54 116.58L167.665 116.784C167.612 116.595 167.52 116.417 167.387 116.25C167.258 116.083 167.084 115.949 166.864 115.847C166.645 115.744 166.376 115.693 166.058 115.693C165.629 115.693 165.27 115.786 164.978 115.972C164.69 116.157 164.548 116.398 164.552 116.693C164.548 116.947 164.641 117.153 164.83 117.312C165.023 117.472 165.342 117.602 165.785 117.705L167.273 118.023C168.099 118.201 168.713 118.483 169.114 118.869C169.52 119.256 169.724 119.761 169.728 120.386C169.724 120.936 169.563 121.42 169.245 121.841C168.931 122.258 168.493 122.583 167.933 122.818C167.372 123.053 166.728 123.17 166.001 123.17C164.933 123.17 164.073 122.947 163.421 122.5C162.77 122.049 162.381 121.422 162.256 120.619L164.262 120.426C164.353 120.82 164.546 121.117 164.842 121.318C165.137 121.519 165.522 121.619 165.995 121.619C166.484 121.619 166.876 121.519 167.171 121.318C167.47 121.117 167.62 120.869 167.62 120.574C167.62 120.324 167.523 120.117 167.33 119.955C167.141 119.792 166.845 119.667 166.444 119.58L164.955 119.267C164.118 119.093 163.499 118.799 163.097 118.386C162.696 117.97 162.497 117.443 162.501 116.807C162.497 116.269 162.643 115.803 162.938 115.409C163.237 115.011 163.652 114.705 164.183 114.489C164.717 114.269 165.332 114.159 166.029 114.159C167.052 114.159 167.857 114.377 168.444 114.812C169.035 115.248 169.4 115.837 169.54 116.58ZM173.839 121.409L173.765 122.034C173.712 122.511 173.617 122.996 173.481 123.489C173.348 123.985 173.208 124.441 173.06 124.858C172.913 125.275 172.793 125.602 172.702 125.841H171.316C171.369 125.61 171.441 125.295 171.532 124.898C171.627 124.5 171.718 124.053 171.805 123.557C171.892 123.061 171.951 122.557 171.981 122.045L172.021 121.409H173.839ZM179.843 123V111.364H184.207C185.101 111.364 185.851 111.519 186.457 111.83C187.067 112.14 187.527 112.576 187.837 113.136C188.152 113.693 188.309 114.343 188.309 115.085C188.309 115.831 188.15 116.479 187.832 117.028C187.517 117.574 187.053 117.996 186.44 118.295C185.826 118.591 185.072 118.739 184.178 118.739H181.07V116.989H183.894C184.417 116.989 184.845 116.917 185.178 116.773C185.512 116.625 185.758 116.411 185.917 116.131C186.08 115.847 186.161 115.498 186.161 115.085C186.161 114.672 186.08 114.32 185.917 114.028C185.754 113.733 185.506 113.509 185.173 113.358C184.839 113.203 184.409 113.125 183.883 113.125H181.951V123H179.843ZM185.854 117.727L188.735 123H186.383L183.553 117.727H185.854ZM193.897 123.17C193.022 123.17 192.266 122.989 191.63 122.625C190.997 122.258 190.511 121.739 190.17 121.068C189.829 120.394 189.658 119.6 189.658 118.688C189.658 117.79 189.829 117.002 190.17 116.324C190.514 115.642 190.996 115.112 191.613 114.733C192.23 114.35 192.956 114.159 193.789 114.159C194.327 114.159 194.835 114.246 195.312 114.42C195.793 114.591 196.217 114.856 196.585 115.216C196.956 115.576 197.247 116.034 197.46 116.591C197.672 117.144 197.778 117.803 197.778 118.568V119.199H190.624V117.812H195.806C195.802 117.419 195.717 117.068 195.55 116.761C195.384 116.451 195.151 116.206 194.852 116.028C194.556 115.85 194.211 115.761 193.817 115.761C193.397 115.761 193.028 115.864 192.71 116.068C192.391 116.269 192.143 116.534 191.965 116.864C191.791 117.189 191.702 117.547 191.698 117.938V119.148C191.698 119.655 191.791 120.091 191.977 120.455C192.162 120.814 192.422 121.091 192.755 121.284C193.088 121.473 193.478 121.568 193.925 121.568C194.225 121.568 194.496 121.527 194.738 121.443C194.98 121.356 195.191 121.229 195.369 121.062C195.547 120.896 195.681 120.689 195.772 120.443L197.692 120.659C197.571 121.167 197.34 121.61 196.999 121.989C196.662 122.364 196.23 122.655 195.704 122.864C195.177 123.068 194.575 123.17 193.897 123.17ZM202.029 123.176C201.476 123.176 200.978 123.078 200.535 122.881C200.095 122.68 199.747 122.384 199.489 121.994C199.236 121.604 199.109 121.123 199.109 120.551C199.109 120.059 199.2 119.652 199.381 119.33C199.563 119.008 199.811 118.75 200.126 118.557C200.44 118.364 200.794 118.218 201.188 118.119C201.586 118.017 201.997 117.943 202.421 117.898C202.933 117.845 203.347 117.797 203.665 117.756C203.984 117.71 204.215 117.642 204.359 117.551C204.506 117.456 204.58 117.311 204.58 117.114V117.08C204.58 116.652 204.453 116.32 204.2 116.085C203.946 115.85 203.58 115.733 203.103 115.733C202.599 115.733 202.2 115.843 201.904 116.062C201.612 116.282 201.415 116.542 201.313 116.841L199.393 116.568C199.544 116.038 199.794 115.595 200.143 115.239C200.491 114.879 200.917 114.61 201.421 114.432C201.925 114.25 202.482 114.159 203.092 114.159C203.512 114.159 203.931 114.208 204.347 114.307C204.764 114.405 205.145 114.568 205.489 114.795C205.834 115.019 206.111 115.324 206.319 115.71C206.531 116.097 206.637 116.58 206.637 117.159V123H204.66V121.801H204.592C204.467 122.044 204.29 122.271 204.063 122.483C203.84 122.691 203.558 122.86 203.217 122.989C202.879 123.114 202.484 123.176 202.029 123.176ZM202.563 121.665C202.976 121.665 203.334 121.583 203.637 121.42C203.94 121.254 204.173 121.034 204.336 120.761C204.503 120.489 204.586 120.191 204.586 119.869V118.841C204.522 118.894 204.412 118.943 204.256 118.989C204.105 119.034 203.934 119.074 203.745 119.108C203.556 119.142 203.368 119.172 203.183 119.199C202.997 119.225 202.836 119.248 202.7 119.267C202.393 119.309 202.118 119.377 201.876 119.472C201.633 119.566 201.442 119.699 201.302 119.869C201.162 120.036 201.092 120.252 201.092 120.517C201.092 120.896 201.23 121.182 201.506 121.375C201.783 121.568 202.135 121.665 202.563 121.665ZM210.762 111.364V123H208.705V111.364H210.762ZM216.937 123V111.364H221.3C222.194 111.364 222.944 111.519 223.55 111.83C224.16 112.14 224.621 112.576 224.931 113.136C225.246 113.693 225.403 114.343 225.403 115.085C225.403 115.831 225.244 116.479 224.925 117.028C224.611 117.574 224.147 117.996 223.533 118.295C222.92 118.591 222.166 118.739 221.272 118.739H218.164V116.989H220.988C221.511 116.989 221.939 116.917 222.272 116.773C222.605 116.625 222.852 116.411 223.011 116.131C223.174 115.847 223.255 115.498 223.255 115.085C223.255 114.672 223.174 114.32 223.011 114.028C222.848 113.733 222.6 113.509 222.266 113.358C221.933 113.203 221.503 113.125 220.977 113.125H219.045V123H216.937ZM222.948 117.727L225.829 123H223.477L220.647 117.727H222.948ZM230.991 123.17C230.116 123.17 229.36 122.989 228.724 122.625C228.091 122.258 227.604 121.739 227.263 121.068C226.923 120.394 226.752 119.6 226.752 118.688C226.752 117.79 226.923 117.002 227.263 116.324C227.608 115.642 228.089 115.112 228.707 114.733C229.324 114.35 230.049 114.159 230.883 114.159C231.421 114.159 231.928 114.246 232.406 114.42C232.887 114.591 233.311 114.856 233.678 115.216C234.049 115.576 234.341 116.034 234.553 116.591C234.765 117.144 234.871 117.803 234.871 118.568V119.199H227.718V117.812H232.9C232.896 117.419 232.811 117.068 232.644 116.761C232.478 116.451 232.245 116.206 231.945 116.028C231.65 115.85 231.305 115.761 230.911 115.761C230.491 115.761 230.121 115.864 229.803 116.068C229.485 116.269 229.237 116.534 229.059 116.864C228.885 117.189 228.796 117.547 228.792 117.938V119.148C228.792 119.655 228.885 120.091 229.07 120.455C229.256 120.814 229.515 121.091 229.849 121.284C230.182 121.473 230.572 121.568 231.019 121.568C231.318 121.568 231.589 121.527 231.832 121.443C232.074 121.356 232.284 121.229 232.462 121.062C232.64 120.896 232.775 120.689 232.866 120.443L234.786 120.659C234.665 121.167 234.434 121.61 234.093 121.989C233.756 122.364 233.324 122.655 232.798 122.864C232.271 123.068 231.669 123.17 230.991 123.17ZM243.509 116.58L241.634 116.784C241.581 116.595 241.488 116.417 241.356 116.25C241.227 116.083 241.053 115.949 240.833 115.847C240.613 115.744 240.344 115.693 240.026 115.693C239.598 115.693 239.238 115.786 238.947 115.972C238.659 116.157 238.517 116.398 238.521 116.693C238.517 116.947 238.61 117.153 238.799 117.312C238.992 117.472 239.31 117.602 239.754 117.705L241.242 118.023C242.068 118.201 242.682 118.483 243.083 118.869C243.488 119.256 243.693 119.761 243.697 120.386C243.693 120.936 243.532 121.42 243.214 121.841C242.899 122.258 242.462 122.583 241.901 122.818C241.341 123.053 240.697 123.17 239.969 123.17C238.901 123.17 238.041 122.947 237.39 122.5C236.738 122.049 236.35 121.422 236.225 120.619L238.231 120.426C238.322 120.82 238.515 121.117 238.81 121.318C239.106 121.519 239.49 121.619 239.964 121.619C240.452 121.619 240.844 121.519 241.14 121.318C241.439 121.117 241.589 120.869 241.589 120.574C241.589 120.324 241.492 120.117 241.299 119.955C241.11 119.792 240.814 119.667 240.413 119.58L238.924 119.267C238.087 119.093 237.468 118.799 237.066 118.386C236.665 117.97 236.466 117.443 236.469 116.807C236.466 116.269 236.612 115.803 236.907 115.409C237.206 115.011 237.621 114.705 238.151 114.489C238.685 114.269 239.301 114.159 239.998 114.159C241.021 114.159 241.826 114.377 242.413 114.812C243.004 115.248 243.369 115.837 243.509 116.58ZM250.955 119.33V114.273H253.012V123H251.018V121.449H250.927C250.73 121.937 250.406 122.337 249.955 122.648C249.508 122.958 248.957 123.114 248.302 123.114C247.73 123.114 247.224 122.987 246.785 122.733C246.349 122.475 246.008 122.102 245.762 121.614C245.516 121.121 245.393 120.527 245.393 119.83V114.273H247.45V119.511C247.45 120.064 247.601 120.504 247.904 120.83C248.207 121.155 248.605 121.318 249.097 121.318C249.4 121.318 249.694 121.244 249.978 121.097C250.262 120.949 250.495 120.729 250.677 120.438C250.862 120.142 250.955 119.773 250.955 119.33ZM257.184 111.364V123H255.127V111.364H257.184ZM263.657 114.273V115.864H258.64V114.273H263.657ZM259.879 112.182H261.935V120.375C261.935 120.652 261.977 120.864 262.06 121.011C262.147 121.155 262.261 121.254 262.401 121.307C262.541 121.36 262.697 121.386 262.867 121.386C262.996 121.386 263.113 121.377 263.219 121.358C263.329 121.339 263.413 121.322 263.469 121.307L263.816 122.915C263.706 122.953 263.549 122.994 263.344 123.04C263.144 123.085 262.897 123.112 262.606 123.119C262.091 123.134 261.627 123.057 261.214 122.886C260.801 122.712 260.473 122.443 260.231 122.08C259.992 121.716 259.875 121.261 259.879 120.716V112.182ZM272.15 116.58L270.275 116.784C270.222 116.595 270.129 116.417 269.996 116.25C269.868 116.083 269.693 115.949 269.474 115.847C269.254 115.744 268.985 115.693 268.667 115.693C268.239 115.693 267.879 115.786 267.587 115.972C267.299 116.157 267.157 116.398 267.161 116.693C267.157 116.947 267.25 117.153 267.44 117.312C267.633 117.472 267.951 117.602 268.394 117.705L269.883 118.023C270.709 118.201 271.322 118.483 271.724 118.869C272.129 119.256 272.334 119.761 272.337 120.386C272.334 120.936 272.173 121.42 271.854 121.841C271.54 122.258 271.103 122.583 270.542 122.818C269.981 123.053 269.337 123.17 268.61 123.17C267.542 123.17 266.682 122.947 266.031 122.5C265.379 122.049 264.991 121.422 264.866 120.619L266.871 120.426C266.962 120.82 267.156 121.117 267.451 121.318C267.746 121.519 268.131 121.619 268.604 121.619C269.093 121.619 269.485 121.519 269.781 121.318C270.08 121.117 270.229 120.869 270.229 120.574C270.229 120.324 270.133 120.117 269.94 119.955C269.75 119.792 269.455 119.667 269.053 119.58L267.565 119.267C266.728 119.093 266.108 118.799 265.707 118.386C265.305 117.97 265.106 117.443 265.11 116.807C265.106 116.269 265.252 115.803 265.548 115.409C265.847 115.011 266.262 114.705 266.792 114.489C267.326 114.269 267.942 114.159 268.638 114.159C269.661 114.159 270.466 114.377 271.053 114.812C271.644 115.248 272.01 115.837 272.15 116.58Z" fill="#058C42"/>
<defs>
<clipPath id="clip0_405_26921">
<rect width="290" height="81" fill="white" transform="translate(15)"/>
</clipPath>
</defs>
</svg>
